# xmcd
# 
# Track frame offsets:
#     182
#     17202
#     26920
#     35932
#     47030
#     64827
#     74842
#     85540
#     96475
#     106402
#     118125
#     128797
#     147310
#     156600
#     166300
#     176872
# 
# Disc length: 2505
# 
# Revision: 5
# Processed by: cddbd v1.5.2PL0 Copyright (c) Steve Scherf et al.
# Submitted via: fre:ac v1.0.17
# 
DISCID=f809c710
DTITLE=Various Artist - 16 All Time Country Greats - CD 10
DYEAR=1989
DGENRE=Country
TTITLE0=Willie Nelson - I Let My Mind Wonder
TTITLE1=Johnny Lee - Red Sails In The Sunset
TTITLE2=George Jones - Love Bug
TTITLE3=Wanda Jackson - Tears Will Be The Chaser For Your Wine
TTITLE4=Kenny Vernon - Polk Salad Annie
TTITLE5=Patsy Cline - Seven Lonely Days
TTITLE6=Bobby Lewis - Love Me And Make It All Better
TTITLE7=Frankie Laine - Humming Bird
TTITLE8=Johnny Cash and The Tennessee Two - Hey Porter
TTITLE9=Johnny Dollar - Big Wheels Sing For Me
TTITLE10=Stonewall Jackson - Waterloo
TTITLE11=Kenny Rogers - The King Of Oakstreet
TTITLE12=The Harden Trio - Tippy Toeing
TTITLE13=Bob Gallion - Wall To Wall Love
TTITLE14=Charlie Brown - See The Big Man Cry
TTITLE15=The Willis Brothers - Give Me Forty Acres (To Turn This Rig Around)
EXTD=YEAR: 1989
EXTT0=
EXTT1=
EXTT2=
EXTT3=
EXTT4=
EXTT5=
EXTT6=
EXTT7=
EXTT8=
EXTT9=
EXTT10=
EXTT11=
EXTT12=
EXTT13=
EXTT14=
EXTT15=
PLAYORDER=
